<svg width="17" height="17" viewBox="0 0 17 17" fill="none" xmlns="http://www.w3.org/2000/svg">
<g clip-path="url(#clip0)">
<path d="M8.50989 17C7.39512 17.0031 6.29065 16.7864 5.25955 16.3621C4.22844 15.9378 3.29088 15.3144 2.50041 14.5273C0.903975 12.9377 0.00355329 10.7782 -0.00277404 8.52387C-0.00910138 6.26953 0.879184 4.10501 2.46667 2.50647C4.05415 0.907931 6.2108 0.00632229 8.46217 -1.33985e-05C13.1723 -0.0156142 17.007 3.80268 16.9982 8.50145C16.9972 10.7553 16.1025 12.9164 14.5108 14.51C12.9192 16.1036 10.7607 16.9992 8.50989 17ZM13.6611 13.2343C16.2844 10.6397 16.115 6.02775 13.3271 3.38634C12.6428 2.73616 11.8345 2.23096 10.9506 1.90097C10.0667 1.57098 9.12536 1.42299 8.18299 1.46587C7.24062 1.50875 6.31659 1.74161 5.46621 2.15051C4.61584 2.55941 3.85662 3.13595 3.23402 3.84558C0.433473 7.04277 1.33226 11.3106 3.3499 13.2129C5.5954 9.36047 11.4078 9.36729 13.6611 13.2343Z" fill="black"/>
<path d="M8.4913 3.99771C10.2733 3.99771 11.5548 5.86688 11.0406 7.7224C10.6511 9.13037 9.36867 9.98452 8.02195 9.73295C6.67523 9.48139 5.70633 8.07927 5.85337 6.63035C6.0082 5.11999 7.12706 4.00454 8.4913 3.99771Z" fill="black"/>
</g>
<defs>
<clipPath id="clip0">
<rect width="17" height="17" fill="white"/>
</clipPath>
</defs>
</svg>
