<svg width="635" height="367" viewBox="0 0 635 367" fill="none" xmlns="http://www.w3.org/2000/svg">
<g clip-path="url(#clip0)">
<path d="M301.292 46.1147C301.292 46.1147 295.125 54.8458 280.006 51.9402C264.887 49.0346 292.307 75.8618 308.552 71.0076C308.552 71.0076 302.399 62.9265 318.643 58.719L301.292 46.1147Z" fill="#FFB9B9"/>
<path d="M93.4063 180.023L81.08 186.493L88.9147 192.957L100.681 186.164L93.4063 180.023Z" fill="#FFB9B9"/>
<path d="M57.5808 159.341L46.3741 166.457L35.1771 161.934L46.9437 155.141L57.5808 159.341Z" fill="#FFB9B9"/>
<path d="M305.764 56.1361C314.421 61.1333 328.462 61.1294 337.127 56.1273C345.791 51.1252 345.798 43.0192 337.142 38.0219C328.486 33.0247 314.444 33.0286 305.78 38.0307C297.115 43.0328 297.108 51.1388 305.764 56.1361Z" fill="#FFB9B9"/>
<path d="M229.542 125.346L224.499 127.61L216.652 135.372L230.095 132.135L229.542 125.346Z" fill="#FFB9B9"/>
<path d="M165.726 90.4461L122.585 111.473C122.585 111.473 111.383 113.416 107.459 118.267C107.459 118.267 95.6954 121.18 94.0133 123.444C92.3313 125.707 90.0896 127.648 87.8494 127.648C85.6092 127.649 53.6721 145.44 52.5498 148.027C51.4276 150.614 45.8235 155.142 45.8235 155.142C45.8235 155.142 53.0983 161.929 61.5008 159.664C69.9033 157.398 69.344 156.428 73.264 156.751C77.184 157.073 100.717 143.487 100.717 143.487C100.717 143.487 100.72 140.254 103.52 140.577C106.32 140.899 106.319 142.192 107.441 139.605C108.563 137.019 105.764 135.403 109.684 136.372C111.848 136.923 114.098 137.355 116.403 137.663L175.22 122.451C175.22 122.451 133.751 153.501 132.629 155.441C131.508 157.381 135.988 156.733 131.508 157.381C127.027 158.029 128.148 156.735 127.027 158.029C125.906 159.322 97.8939 170.969 95.0902 175.173C93.4824 177.61 91.6099 179.986 89.4839 182.287C89.4839 182.287 94.518 189.722 98.439 188.751C102.36 187.78 106.843 184.546 109.083 185.192C111.322 185.838 114.122 186.16 118.605 183.573C123.087 180.985 148.298 170.309 148.298 170.309C148.298 170.309 146.06 167.076 149.982 166.105C153.903 165.134 153.342 165.458 155.024 163.841C156.705 162.223 156.146 161.254 158.947 160.93C161.747 160.606 166.79 157.694 166.79 157.694L217.772 136.018L227.713 124.29L165.726 90.4461Z" fill="#2F2E41"/>
<path d="M85.0008 185.522C85.0008 185.522 85.0024 183.582 82.7617 184.229C80.521 184.876 64.8323 193.934 64.8323 193.934C64.8323 193.934 65.9487 198.46 64.2677 199.43C62.5868 200.4 60.3423 205.574 69.2997 209.451C69.3893 209.49 69.4785 209.528 69.5674 209.565C70.8861 210.114 72.4081 210.478 74.0131 210.628C75.6181 210.779 77.2621 210.712 78.8151 210.432C80.3681 210.153 81.7876 209.669 82.9614 209.018C84.1352 208.368 85.0311 207.569 85.5783 206.685L94.5158 192.309C94.5158 192.309 94.5212 185.843 85.0008 185.522Z" fill="#2F2E41"/>
<path d="M48.056 164.194C48.056 164.194 51.4163 164.193 50.2951 165.486C49.174 166.78 33.4853 175.837 33.4853 175.837C33.4853 175.837 25.6453 175.192 23.9643 176.163C22.2834 177.133 13.3217 178.429 6.6055 173.258C6.53834 173.206 6.4725 173.155 6.40802 173.103C5.45761 172.342 4.82716 171.463 4.5665 170.537C4.30584 169.61 4.42214 168.661 4.90616 167.765C5.39018 166.868 6.22866 166.049 7.35536 165.371C8.48206 164.693 9.8661 164.176 11.3981 163.86L36.2998 158.701C36.2998 158.701 47.5006 158.698 48.056 164.194Z" fill="#2F2E41"/>
<path d="M326.501 30.3724L324.823 28.1079C324.823 28.1079 337.13 27.7631 344.716 32.7901L344.949 30.0097C344.949 30.0097 352.794 31.9473 351.995 38.2878C351.574 41.6208 351.031 45.5102 348.86 48.992L351.859 50.7233L347.849 51.5934L349.471 55.715L345.47 52.8331C343.514 54.4539 340.92 55.7835 337.9 56.7122L335.84 58.0406C335.84 58.0406 338.7 50.3717 339.822 49.7239L337.017 51.3435C337.017 51.3435 336.741 48.2692 338.425 47.2975L334.933 47.5494L337.256 45.3269L324.75 41.6707L328.803 41.0949L322.106 38.2005L327.483 37.7417C327.483 37.7417 317.217 36.026 313.876 37.6606C310.536 39.2951 303.299 39.652 303.299 39.652L304.577 37.1506C304.577 37.1506 314.91 28.5398 326.501 30.3724Z" fill="#2F2E41"/>
<path d="M310.784 81.0296L317.021 84.63C317.479 84.8944 317.768 85.2411 317.839 85.6131C317.911 85.9851 317.761 86.3602 317.414 86.6767C314.111 89.6948 304.5 98.1068 294.524 103.343C282.198 109.812 274.913 115.311 272.672 115.958C270.431 116.605 270.431 117.252 268.75 118.222C267.069 119.193 269.869 119.515 265.948 119.839C262.028 120.164 262.588 119.84 260.907 120.811C259.226 121.781 227.854 133.429 227.854 133.429C227.854 133.429 230.337 127.553 224.899 125.804L248.593 113.055L259.238 108.202L274.368 97.5287L310.784 81.0296Z" fill="#3F3D56"/>
<path d="M289.518 61.9602C289.518 61.9602 280.349 56.2667 281.299 52.1633C281.299 52.1633 254.811 44.5111 246.968 46.4532C239.126 48.3952 223.988 68.768 223.988 68.768C223.988 68.768 155.087 88.5091 163.483 93.3564C171.88 98.2038 184.188 113.073 199.306 117.271C208.651 119.886 217.636 122.91 226.18 126.317C226.18 126.317 242.428 118.229 244.11 115.966C245.792 113.702 241.312 113.057 246.914 111.762C252.515 110.467 252.516 109.821 253.637 108.527C254.758 107.233 258.679 106.909 260.92 105.615C263.161 104.321 267.644 101.087 267.644 101.087C267.644 101.087 318.058 89.4337 318.061 85.554C318.064 81.6742 307.445 68.065 307.445 68.065C307.445 68.065 296.793 68.7477 289.518 61.9602Z" fill="#3F3D56"/>
<path d="M155.087 88.8324C155.087 88.8324 123.714 101.127 134.352 104.68C144.99 108.234 162.923 93.3566 162.923 93.3566L155.087 88.8324Z" fill="#FFB9B9"/>
<path d="M252.568 47.4215L249.585 46.8482C248.424 46.6251 247.189 46.5601 245.976 46.6585C244.764 46.7569 243.607 47.0158 242.597 47.4152L192.627 67.1602C192.627 67.1602 185.345 68.7788 184.785 69.1022C184.225 69.4257 185.344 70.072 182.544 70.3961C179.743 70.7202 178.624 69.4272 178.623 70.7205C178.681 71.4251 178.281 72.1169 177.502 72.6607L151.166 89.1569C151.166 89.1569 163.484 93.0332 163.481 96.2663C163.481 96.2663 169.087 89.7985 173.568 89.1506C178.048 88.5027 181.971 86.2385 181.971 86.2385C181.971 86.2385 180.851 85.5922 186.451 85.5906C192.052 85.589 193.732 85.2653 193.733 84.6187C193.733 83.9721 198.216 80.7377 198.777 80.4142C199.337 80.0907 242.475 61.65 242.475 61.65L252.568 47.4215Z" fill="#3F3D56"/>
<path d="M423.82 83.106C422.96 82.6104 421.794 82.3323 420.578 82.3327C419.362 82.333 418.195 82.6118 417.334 83.1078L280.136 162.312C279.277 162.809 278.794 163.483 278.794 164.185C278.793 164.887 279.275 165.56 280.133 166.056L481.101 282.075C481.961 282.57 483.127 282.848 484.343 282.848C485.559 282.848 486.725 282.569 487.587 282.073L624.784 202.869C625.643 202.372 626.126 201.698 626.127 200.996C626.127 200.294 625.646 199.621 624.787 199.125L423.82 83.106Z" fill="#E6E6E6"/>
<path d="M423.815 88.4551C422.955 87.9595 421.789 87.6814 420.573 87.6817C419.357 87.6821 418.191 87.9608 417.329 88.4569L289.402 162.309C288.543 162.807 288.06 163.48 288.059 164.182C288.059 164.884 288.54 165.557 289.399 166.054L481.105 276.726C481.966 277.221 483.132 277.499 484.348 277.499C485.563 277.499 486.73 277.22 487.591 276.724L615.519 202.871C616.378 202.374 616.861 201.701 616.861 200.999C616.862 200.297 616.38 199.624 615.522 199.127L423.815 88.4551Z" fill="white"/>
<path opacity="0.2" d="M328.288 156.374L345.848 157.942L392.282 177.403L423.265 187.946L431.431 198.84L475.803 194.406L485.705 203.182L525.208 202.117L531.683 209.528L590.469 201.233L498.282 254.452L328.288 156.374Z" fill="#6C63FF"/>
<path d="M329.678 156.908C329.432 156.766 329.295 156.574 329.295 156.373C329.295 156.173 329.433 155.98 329.679 155.838C329.925 155.696 330.258 155.617 330.606 155.617C330.953 155.616 331.286 155.696 331.532 155.838C374.326 180.543 423.714 199.152 470.6 208.238C514.564 216.757 553.078 216.126 576.265 206.506C576.404 206.448 576.563 206.407 576.73 206.384C576.898 206.361 577.072 206.358 577.241 206.374C577.411 206.39 577.574 206.425 577.72 206.477C577.866 206.529 577.993 206.598 578.094 206.679C578.194 206.759 578.266 206.85 578.305 206.947C578.344 207.044 578.35 207.144 578.322 207.242C578.294 207.34 578.233 207.434 578.142 207.519C578.052 207.603 577.933 207.676 577.793 207.734C565.749 212.732 550.096 215.418 531.272 215.72C512.705 216.018 492.011 213.983 469.764 209.672C422.502 200.513 372.752 181.775 329.678 156.908Z" fill="#6C63FF"/>
<path d="M505.274 258.496L328.386 156.378L415.862 105.878L416.788 106.413L330.239 156.378L506.201 257.961L505.274 258.496Z" fill="#E6E6E6"/>
</g>
<defs>
<clipPath id="clip0">
<rect width="393.968" height="339.251" transform="matrix(0.866044 0.499967 -0.866044 0.499967 293.806 0)" fill="white"/>
</clipPath>
</defs>
</svg>
