<svg width="252" height="64" viewBox="0 0 252 64" fill="none" xmlns="http://www.w3.org/2000/svg">
<g clip-path="url(#clip0)">
<path d="M80.161 21.8472L81.2657 20.2669L100.158 0.189005H110.506L89.7413 21.9838L111.265 50.0842H101.075L83.8854 27.0574L80.3673 30.4732V50.0751H72.2285V0.189005H80.3696V19.3173L80.161 21.8472Z" fill="#D71015"/>
<path d="M128.727 8.34584V21.098H136.316V27.1303H128.727V50.0865H121.001V27.1257H115.973V21.0935H121.015V8.34129L128.727 8.34584Z" fill="#D71015"/>
<path d="M172.737 21.0935L156.733 50.8402H156.389L139.626 21.0935H148.793L156.795 37.6804L164.106 21.0935H172.737Z" fill="#D71015"/>
<path d="M180.12 7.8312C180.966 7.0588 182.074 6.63049 183.223 6.63113C184.34 6.63715 185.413 7.06634 186.223 7.8312C186.649 8.18882 186.99 8.63515 187.223 9.1385C187.455 9.64186 187.573 10.1899 187.569 10.7437C187.575 11.2929 187.458 11.8366 187.225 12.3348C186.992 12.833 186.65 13.2729 186.223 13.6221C185.405 14.3693 184.335 14.7852 183.223 14.788C182.08 14.7904 180.975 14.3755 180.12 13.6221C179.686 13.2771 179.337 12.8388 179.099 12.3402C178.861 11.8415 178.739 11.2956 178.745 10.7437C178.741 10.1871 178.862 9.63664 179.1 9.13269C179.338 8.62874 179.687 8.18406 180.12 7.8312V7.8312ZM186.812 21.0935V50.0865H179.084V21.0935H186.812Z" fill="#D71015"/>
<path d="M207.988 8.34584V21.098H215.576V27.1303H207.988V50.0865H200.262V27.1257H195.219V21.0935H200.262V8.34129L207.988 8.34584Z" fill="#D71015"/>
<path d="M252 21.0935L233.167 63.9886H225.578L232.408 48.8408L218.881 21.0935H227.591L236.282 40.2855L244.973 21.0935H252Z" fill="#D71015"/>
<path d="M12.1473 22.2138C11.0339 24.0796 10.3917 26.1854 10.2755 28.3514C10.1594 30.5174 10.5728 32.6791 11.4804 34.6518L12.3032 35.1869C14.4869 35.212 16.6442 34.7116 18.5911 33.7286C20.5379 32.7456 22.2164 31.3091 23.4833 29.5418L23.5337 28.5649C22.4649 26.6741 20.9512 25.0684 19.122 23.8851C17.2928 22.7018 15.2026 21.976 13.0297 21.7698C12.8553 21.7522 12.6795 21.7847 12.5231 21.8634C12.3667 21.9421 12.2363 22.0637 12.1473 22.2138Z" fill="#D71015"/>
<path d="M32.6374 25.1856C32.49 27.3485 32.8716 29.5148 33.7496 31.4995C34.6277 33.4841 35.976 35.2282 37.6797 36.5828L38.6583 36.6921C40.6202 35.7368 42.3202 34.3238 43.613 32.5739C44.9057 30.8239 45.7528 28.7889 46.082 26.643L45.6832 25.7503C43.8746 24.5445 41.7996 23.7906 39.6348 23.5527C37.47 23.3148 35.2794 23.6 33.2493 24.384C33.0811 24.4458 32.9341 24.5541 32.8257 24.6961C32.7173 24.8381 32.652 25.0079 32.6374 25.1856V25.1856Z" fill="#D71015"/>
<path d="M32.2821 21.1982C33.0765 19.1836 33.3695 17.0082 33.1361 14.857C32.9026 12.7057 32.1497 10.6423 30.9413 8.84227L30.0246 8.44377C27.8647 8.7653 25.8153 9.60137 24.0512 10.8806C22.2871 12.1598 20.8609 13.8442 19.8941 15.7899L20.0019 16.76C21.3605 18.4572 23.1124 19.8025 25.108 20.6808C27.1036 21.5592 29.2836 21.9445 31.4616 21.804C31.6425 21.7922 31.8162 21.7287 31.9618 21.6213C32.1073 21.5138 32.2185 21.3669 32.2821 21.1982V21.1982Z" fill="#D71015"/>
<path d="M20.5359 36.5054C20.4321 38.6709 20.8574 40.8293 21.7754 42.7961C22.6933 44.7629 24.0767 46.4798 25.8074 47.8002L26.786 47.889C28.7269 46.8935 30.3964 45.4461 31.652 43.6704C32.9076 41.8947 33.712 39.8435 33.9965 37.6918L33.5794 36.8083C31.7468 35.6388 29.657 34.9264 27.4878 34.7317C25.3186 34.537 23.1341 34.8659 21.1203 35.6902C20.9552 35.7572 20.8127 35.8693 20.7092 36.0136C20.6057 36.158 20.5456 36.3285 20.5359 36.5054V36.5054Z" fill="#D71015"/>
<path d="M27.4003 54.467C22.9208 54.4643 18.5101 53.3711 14.5542 51.283C10.5983 49.1949 7.21756 46.1756 4.70779 42.4891C2.19802 38.8026 0.635652 34.5612 0.157346 30.136C-0.32096 25.7108 0.299369 21.2365 1.96407 17.1046C3.62877 12.9727 6.28713 9.30896 9.70662 6.43394C13.1261 3.55891 17.2025 1.56016 21.5794 0.612513C25.9562 -0.335135 30.5 -0.202808 34.8135 0.997919C39.1269 2.19865 43.0785 4.43119 46.3227 7.50028V7.50028C50.2495 11.2156 52.9792 16.0044 54.1667 21.2611C55.3542 26.5178 54.9461 32.0064 52.994 37.0326C51.042 42.0589 47.6336 46.3972 43.1999 49.4989C38.7663 52.6006 33.5064 54.3263 28.0856 54.4579C27.8564 54.4625 27.6272 54.467 27.4003 54.467ZM27.4209 4.78133C22.1718 4.78517 17.0879 6.60529 13.0429 9.92895C8.9978 13.2526 6.24412 17.8723 5.25501 22.9941C4.26589 28.116 5.1031 33.4202 7.62278 37.9953C10.1425 42.5704 14.1873 46.1308 19.0622 48.0646C23.9371 49.9985 29.3377 50.185 34.336 48.5922C39.3343 46.9994 43.6182 43.7266 46.4516 39.3364C49.2849 34.9462 50.4909 29.7125 49.8621 24.5348C49.2334 19.3571 46.8092 14.5586 43.0062 10.9639V10.9639C38.8068 6.98505 33.2237 4.77028 27.4209 4.78133V4.78133Z" fill="#D71015"/>
</g>
<defs>
<clipPath id="clip0">
<path d="M0 0H252V64H0V0Z" fill="white"/>
</clipPath>
</defs>
</svg>
